<mxfile host="app.diagrams.net" agent="Mozilla/5.0 (Macintosh; Intel Mac OS X 10_15_7) AppleWebKit/537.36 (KHTML, like Gecko) Chrome/130.0.0.0 Safari/537.36" version="24.8.4">
  <diagram name="Page-1" id="X9dftWcr-_qkQx8xd6QC">
    <mxGraphModel dx="1363" dy="866" grid="1" gridSize="10" guides="1" tooltips="1" connect="1" arrows="1" fold="1" page="1" pageScale="1" pageWidth="827" pageHeight="1169" math="0" shadow="0">
      <root>
        <mxCell id="0" />
        <mxCell id="1" parent="0" />
        <mxCell id="YGRpBU-1YuHMAziia5uC-29" style="edgeStyle=orthogonalEdgeStyle;rounded=0;orthogonalLoop=1;jettySize=auto;html=1;exitX=0.5;exitY=1;exitDx=0;exitDy=0;entryX=0.5;entryY=0;entryDx=0;entryDy=0;" edge="1" parent="1" source="YGRpBU-1YuHMAziia5uC-10" target="YGRpBU-1YuHMAziia5uC-11">
          <mxGeometry relative="1" as="geometry" />
        </mxCell>
        <mxCell id="YGRpBU-1YuHMAziia5uC-10" value="begin login/register" style="rounded=1;whiteSpace=wrap;html=1;" vertex="1" parent="1">
          <mxGeometry x="10" y="10" width="120" height="60" as="geometry" />
        </mxCell>
        <mxCell id="YGRpBU-1YuHMAziia5uC-30" style="edgeStyle=orthogonalEdgeStyle;rounded=0;orthogonalLoop=1;jettySize=auto;html=1;exitX=0.5;exitY=1;exitDx=0;exitDy=0;entryX=0.5;entryY=0;entryDx=0;entryDy=0;" edge="1" parent="1" source="YGRpBU-1YuHMAziia5uC-11" target="YGRpBU-1YuHMAziia5uC-16">
          <mxGeometry relative="1" as="geometry" />
        </mxCell>
        <mxCell id="YGRpBU-1YuHMAziia5uC-31" value="Load login page" style="edgeLabel;html=1;align=center;verticalAlign=middle;resizable=0;points=[];" vertex="1" connectable="0" parent="YGRpBU-1YuHMAziia5uC-30">
          <mxGeometry x="-0.108" relative="1" as="geometry">
            <mxPoint as="offset" />
          </mxGeometry>
        </mxCell>
        <mxCell id="YGRpBU-1YuHMAziia5uC-11" value="POST?" style="rhombus;whiteSpace=wrap;html=1;" vertex="1" parent="1">
          <mxGeometry x="30" y="90" width="80" height="80" as="geometry" />
        </mxCell>
        <mxCell id="YGRpBU-1YuHMAziia5uC-33" style="edgeStyle=orthogonalEdgeStyle;rounded=0;orthogonalLoop=1;jettySize=auto;html=1;entryX=0.5;entryY=0;entryDx=0;entryDy=0;" edge="1" parent="1" source="YGRpBU-1YuHMAziia5uC-12" target="YGRpBU-1YuHMAziia5uC-13">
          <mxGeometry relative="1" as="geometry" />
        </mxCell>
        <mxCell id="YGRpBU-1YuHMAziia5uC-12" value="login details checked" style="rounded=1;whiteSpace=wrap;html=1;" vertex="1" parent="1">
          <mxGeometry x="10" y="320" width="120" height="60" as="geometry" />
        </mxCell>
        <mxCell id="YGRpBU-1YuHMAziia5uC-35" style="edgeStyle=orthogonalEdgeStyle;rounded=0;orthogonalLoop=1;jettySize=auto;html=1;entryX=0.5;entryY=0;entryDx=0;entryDy=0;" edge="1" parent="1" source="YGRpBU-1YuHMAziia5uC-13" target="YGRpBU-1YuHMAziia5uC-14">
          <mxGeometry relative="1" as="geometry" />
        </mxCell>
        <mxCell id="YGRpBU-1YuHMAziia5uC-13" value="django authentication passed" style="rounded=1;whiteSpace=wrap;html=1;" vertex="1" parent="1">
          <mxGeometry x="10" y="410" width="120" height="60" as="geometry" />
        </mxCell>
        <mxCell id="YGRpBU-1YuHMAziia5uC-26" style="edgeStyle=orthogonalEdgeStyle;rounded=0;orthogonalLoop=1;jettySize=auto;html=1;entryX=0.5;entryY=0;entryDx=0;entryDy=0;" edge="1" parent="1" source="YGRpBU-1YuHMAziia5uC-14" target="YGRpBU-1YuHMAziia5uC-15">
          <mxGeometry relative="1" as="geometry" />
        </mxCell>
        <mxCell id="YGRpBU-1YuHMAziia5uC-27" value="Success = GET" style="edgeLabel;html=1;align=center;verticalAlign=middle;resizable=0;points=[];" vertex="1" connectable="0" parent="YGRpBU-1YuHMAziia5uC-26">
          <mxGeometry y="-1" relative="1" as="geometry">
            <mxPoint as="offset" />
          </mxGeometry>
        </mxCell>
        <mxCell id="YGRpBU-1YuHMAziia5uC-36" style="edgeStyle=orthogonalEdgeStyle;rounded=0;orthogonalLoop=1;jettySize=auto;html=1;entryX=1;entryY=0.5;entryDx=0;entryDy=0;" edge="1" parent="1" source="YGRpBU-1YuHMAziia5uC-14" target="YGRpBU-1YuHMAziia5uC-11">
          <mxGeometry relative="1" as="geometry">
            <Array as="points">
              <mxPoint x="170" y="540" />
              <mxPoint x="170" y="130" />
            </Array>
          </mxGeometry>
        </mxCell>
        <mxCell id="YGRpBU-1YuHMAziia5uC-37" value="Fail = GET" style="edgeLabel;html=1;align=center;verticalAlign=middle;resizable=0;points=[];" vertex="1" connectable="0" parent="YGRpBU-1YuHMAziia5uC-36">
          <mxGeometry x="0.069" y="2" relative="1" as="geometry">
            <mxPoint as="offset" />
          </mxGeometry>
        </mxCell>
        <mxCell id="YGRpBU-1YuHMAziia5uC-14" value="user?" style="rhombus;whiteSpace=wrap;html=1;" vertex="1" parent="1">
          <mxGeometry x="30" y="500" width="80" height="80" as="geometry" />
        </mxCell>
        <mxCell id="YGRpBU-1YuHMAziia5uC-28" style="edgeStyle=orthogonalEdgeStyle;rounded=0;orthogonalLoop=1;jettySize=auto;html=1;exitX=0.5;exitY=1;exitDx=0;exitDy=0;entryX=0.5;entryY=0;entryDx=0;entryDy=0;" edge="1" parent="1" source="YGRpBU-1YuHMAziia5uC-15" target="YGRpBU-1YuHMAziia5uC-17">
          <mxGeometry relative="1" as="geometry" />
        </mxCell>
        <mxCell id="YGRpBU-1YuHMAziia5uC-15" value="user page" style="rounded=0;whiteSpace=wrap;html=1;" vertex="1" parent="1">
          <mxGeometry x="10" y="620" width="120" height="60" as="geometry" />
        </mxCell>
        <mxCell id="YGRpBU-1YuHMAziia5uC-32" style="edgeStyle=orthogonalEdgeStyle;rounded=0;orthogonalLoop=1;jettySize=auto;html=1;entryX=0.5;entryY=0;entryDx=0;entryDy=0;" edge="1" parent="1" source="YGRpBU-1YuHMAziia5uC-16" target="YGRpBU-1YuHMAziia5uC-12">
          <mxGeometry relative="1" as="geometry" />
        </mxCell>
        <mxCell id="YGRpBU-1YuHMAziia5uC-34" value="User enters details" style="edgeLabel;html=1;align=center;verticalAlign=middle;resizable=0;points=[];" vertex="1" connectable="0" parent="YGRpBU-1YuHMAziia5uC-32">
          <mxGeometry x="0.1345" relative="1" as="geometry">
            <mxPoint as="offset" />
          </mxGeometry>
        </mxCell>
        <mxCell id="YGRpBU-1YuHMAziia5uC-16" value="login page" style="rounded=0;whiteSpace=wrap;html=1;" vertex="1" parent="1">
          <mxGeometry x="10" y="210" width="120" height="60" as="geometry" />
        </mxCell>
        <mxCell id="YGRpBU-1YuHMAziia5uC-17" value="end login/register" style="rounded=1;whiteSpace=wrap;html=1;" vertex="1" parent="1">
          <mxGeometry x="10" y="700" width="120" height="60" as="geometry" />
        </mxCell>
      </root>
    </mxGraphModel>
  </diagram>
</mxfile>
